<?xml version="1.0"?>
<svg xmlns="http://www.w3.org/2000/svg" width="288" height="253">
 <path style="fill:#000" d="M 32.202017,251.01531 C 16.550057,246.64446 5.5574502,235.38538 4.3147102,222.45198 L 3.8541402,217.65875 L 12.725767,222.13472 C 21.810407,226.71817 32.108427,229.49698 40.097387,229.52067 C 47.749767,229.54335 62.426527,226.72254 71.722407,223.44247 C 83.289463,219.36101 105.93085,208.04218 104.79671,206.90804 C 104.58164,206.69298 96.348824,205.32 86.501533,203.85696 C 61.413477,200.12958 34.857287,199.95068 21.597387,203.41973 C 16.647387,204.71475 9.7848867,207.04383 6.3473871,208.59546 C 2.9098902,210.1471 0.097390182,211.05553 0.097390182,210.61419 C 0.097390182,209.06107 3.9912602,204.8876 8.0913572,202.04623 C 10.371217,200.46629 12.884647,197.92034 13.676757,196.38857 C 15.052797,193.7276 14.993077,193.53947 12.336387,192.16564 C 8.4075172,190.13394 4.2329802,185.72816 1.8955702,181.14646 C -1.0862199,175.30166 -0.36494987,164.96101 3.5665302,157.19059 C 12.827787,138.88603 30.048687,126.72289 68.303497,111.46684 C 89.035483,103.1989 97.791319,98.473752 105.54414,91.369714 C 111.48766,85.923544 112.09738,85.589924 112.09738,87.783964 C 112.09738,91.244714 108.31643,98.237639 103.09738,104.42962 C 100.62238,107.366 91.269433,116.27061 82.313053,124.21764 C 64.425407,140.08942 58.096117,147.32163 55.085347,155.32956 C 50.507647,167.50518 53.736367,180.46496 62.851637,186.50266 C 69.768877,191.08445 73.932827,191.86373 88.097383,191.22735 C 119.13436,189.83295 135.09738,181.47172 135.09738,166.60935 C 135.09738,160.15155 129.68815,158.49118 124.06482,163.2229 L 120.87881,165.90375 L 118.91813,163.4729 C 115.32285,159.01548 112.80174,152.14227 112.32669,145.50294 C 111.67276,136.36334 114.44517,126.20296 122.49845,108.2253 C 129.13077,93.419714 131.5638,85.882374 134.50111,71.042034 C 136.71986,59.832114 139.7574,34.977224 141.2451,15.858794 C 141.93771,6.9580045 142.79557,-0.14449552 143.15145,0.07545448 C 143.50733,0.29539448 144.10519,5.2189645 144.48002,11.016704 C 145.35501,24.550664 149.51263,57.732284 152.18907,72.542034 C 154.60681,85.920254 155.82917,89.511984 163.93041,107.04204 C 176.33796,133.89046 177.15862,150.17507 166.79998,163.9843 C 165.37545,165.88337 165.27191,165.86669 162.14349,163.2343 C 158.58044,160.23619 157.34962,160.01437 153.64443,161.70257 C 147.79916,164.36585 151.98925,176.5322 160.87017,182.68325 C 169.84601,188.90003 179.49542,190.97509 199.59738,191.01137 C 214.29543,191.0379 217.07131,190.78993 220.09738,189.1801 C 229.82186,184.0068 233.63389,176.371 232.89181,163.55188 C 232.20495,151.68684 229.82774,148.49236 202.09738,122.17067 C 186.20939,107.08978 177.53199,97.190154 175.4498,91.769744 C 174.54716,89.419974 174.06293,87.243154 174.37373,86.932354 C 174.68453,86.621554 177.91151,88.819274 181.5448,91.816174 C 189.49009,98.369819 204.63381,106.38928 223.59738,114.08538 C 241.64535,121.4099 251.61132,126.38879 261.8841,133.21302 C 288.49616,150.89146 295.28202,181.24461 274.94206,191.62129 C 272.82749,192.70006 271.09738,193.88858 271.09738,194.26243 C 271.09738,194.63628 274.57948,198.19504 278.83537,202.17078 C 283.09126,206.14653 286.28487,209.68789 285.93227,210.04049 C 285.57968,210.39308 283.49634,209.76591 281.30264,208.64677 C 266.17909,200.9313 232.35,199.00763 199.23252,203.9799 C 182.7849,206.44935 181.09738,206.77683 181.09738,207.49923 C 181.09738,208.58604 207.80549,221.09596 215.09738,223.42463 C 226.20303,226.97122 235.82778,228.54205 246.45266,228.54205 C 258.24774,228.54205 265.79884,226.88877 275.09738,222.27043 C 278.67238,220.49482 281.98351,218.87584 282.45544,218.6727 C 283.96897,218.0212 282.03206,226.871 279.49423,232.20259 C 275.20986,241.20339 265.53107,248.04849 252.86654,251.03441 C 240.11555,254.04071 229.74288,252.56045 217.03641,245.92117 C 211.03188,242.78372 205.5166,238.83114 179.80704,219.24033 C 174.97236,215.55628 170.35986,212.54205 169.55704,212.54205 C 168.58652,212.54205 168.09738,213.59727 168.09738,215.69097 C 168.09738,218.29658 169.44187,220.16466 175.8897,226.5179 C 184.85623,235.35289 194.86961,240.99485 203.49641,242.0727 L 208.9207,242.75042 L 207.89267,245.69943 C 206.4081,249.95806 202.96631,251.81292 196.654,251.7562 C 186.43573,251.66438 177.42526,245.27797 168.06317,231.49168 C 163.31203,224.4953 158.25773,219.55305 155.84738,219.54668 C 152.86547,219.53879 153.75465,225.21694 158.5882,237.04898 C 161.05815,243.09517 163.08315,248.83812 163.0882,249.8111 C 163.09828,251.75392 163.53512,251.79712 150.42887,248.55913 C 143.35803,246.81223 143.13034,246.81876 133.71863,249.03817 C 128.47069,250.27572 123.96989,251.08123 123.71687,250.8282 C 123.01123,250.12257 125.82879,241.32711 129.08624,234.06688 C 132.7396,225.92422 133.39474,220.2757 130.74851,219.73506 C 128.28837,219.23243 123.96147,223.45087 118.1251,232.04205 C 113.08613,239.45944 106.20433,246.40194 101.46174,248.85241 C 91.045773,254.23426 80.997393,252.52021 78.704933,244.97055 C 78.140333,243.11118 78.680243,242.78667 83.977303,241.80157 C 95.304203,239.69512 105.98063,232.92056 114.87246,222.19754 C 119.23372,216.93812 120.02528,213.33446 116.94802,212.74832 C 116.03131,212.57372 108.19291,217.95045 99.302232,224.85239 C 81.838433,238.40977 75.521243,242.53975 63.556597,248.22173 C 56.516537,251.56505 54.694387,251.99823 46.632257,252.2452 C 40.830027,252.42295 35.666947,251.9829 32.202017,251.01531 z" />
</svg>
